<svg xmlns="http://www.w3.org/2000/svg" viewBox="-50 -90 100 100" width="500" height="500" font-family="Georgia, 'Times New Roman', serif">

  <style>
    .grass { fill: #6ab06a; }
    .dirt { fill: #d4a574; }
    .label { fill: "#505050"; text-anchor: middle; font-size: 3.5 }
  </style>

  <!-- ===================== BACKGROUND ===================== -->
  <rect x="-50" y="-90" width="100" height="100" fill="#f5f2eb"/>

  <!-- ===================== OUTER SECTOR: GRASS ===================== -->

  <path d="
    M 0 0
    L -48 -48
    A 67.88 67.88 0 0 1 48 -48
    Z
" class="grass"/>

  <!-- ===================== INNER SECTOR: DIRT ===================== -->

  <path d="
    M 0 0
    L -30 -30
    A 42.43 42.43 0 0 1 30 -30
    Z
" class="dirt"/>

  <!-- ===================== INFIELD GRASS square around mound ===================== -->

  <rect x="-11.5" y="-31.5" width="23" height="23" class="grass" transform="rotate(45 0 -20)"/>

  <!-- ===================== PITCHER'S MOUND ===================== -->

  <circle cx="0" cy="-19" r="4" class="dirt"/>

  <!-- ===================== BASES ===================== -->

  <!-- HOME PLATE (pentagon, bottom) -->
  <circle cx="0" cy="-3" r="4" class="dirt"/>
  <polygon points="0,-1 -1.5,-2.5 -1.5,-4 1.5,-4 1.5,-2.5" fill="white" stroke="#999" stroke-width="0.25"/>
  <text x="0" y="-6" class="label" font-size="4.25">∅</text>
  <!-- <text x="0" y="-6" class="label" font-size="3.5">{}</text> -->

  <!-- FIRST BASE (right), rotated square -->
  <circle cx="14" cy="-20" r="4" class="dirt"/>
  <rect x="12.5" y="-21.5" width="3" height="3" rx="0.25" fill="white" stroke="#999" stroke-width="0.25" transform="rotate(45 14 -20)"/>
  <text x="14" y="-23.5" class="label" font-size="3.5">{∅}</text>
  <!-- <text x="14" y="-23.5" class="label" font-size="3.5">{{}}</text> -->

  <!-- SECOND BASE (top), rotated square -->
  <circle cx="0" cy="-34.5" r="4" class="dirt"/>
  <rect x="-1.5" y="-36" width="3" height="3" rx="0.25" fill="white" stroke="#999" stroke-width="0.25" transform="rotate(45 0 -34.5)"/>
  <text x="0" y="-38.5" class="label" font-size="3.5">{∅, {∅}}</text>
  <!-- <text x="0" y="-38.5" class="label" font-size="3.5">{{}, {{}}}</text> -->

  <!-- THIRD BASE (left), rotated square-->
  <circle cx="-14" cy="-20" r="4" class="dirt"/>
  <rect x="-15.5" y="-21.5" width="3" height="3" rx="0.25" fill="white" stroke="#999" stroke-width="0.25" transform="rotate(45 -14 -20)"/>
  <text x="-9.5" y="-23.5" class="label" font-size="3.5">{∅, {∅}, {∅, {∅}}}</text>
  <!-- <text x="-15" y="-23.5" class="label" font-size="3.5">{{}, {{}}, {{}, {{}}}}</text> -->

  <!-- ===================== FOUL LINES ===================== -->

  <!-- <line x1="-3" y1="-8.5" x2="-47.5" y2="-53" stroke="white" stroke-width="0.5" opacity="0.8"/>
  <line x1="3" y1="-8.5" x2="47.5" y2="-53" stroke="white" stroke-width="0.5" opacity="0.8"/> -->

  <!-- ===================== PLATE LABELS ===================== -->

  <!-- SECOND BASE (top): {∅, {∅}} -->
  <text x="250" y="302" text-anchor="middle" font-size="13" fill="#333" font-weight="bold">{∅, {∅}}</text>



</svg>
